<!DOCTYPE svg>
<svg viewBox="0 0 1024 1024" xmlns="http://www.w3.org/2000/svg" >
    <path
        d="M959.855074 294.755164c0-74.968435-60.993143-135.961578-135.956462-135.961578-62.466704 0-115.089202 42.396599-130.953518 99.883895l-306.044278-51.4283C374.051161 130.444934 307.292712 71.665203 226.89666 71.665203c-89.553619 0-162.40688 72.858378-162.40688 162.411997 0 76.504418 53.235458 140.658554 124.563994 157.778466l43.856857 278.770098c-57.537438 19.215644-99.17679 73.499991-99.17679 137.414673 0 79.915098 65.019853 144.933927 144.933927 144.933927 64.748676 0 119.697149-42.693358 138.229225-101.399411l378.257973 27.808346c0.772596 0.051165 1.545192 0.080841 2.317789 0.080841 16.207124 0 29.912263-12.516058 31.121811-28.946262 1.260713-17.202801-11.661597-32.169677-28.864398-33.440623l-377.47719-27.751041c-8.529257-65.705468-61.119009-117.717052-127.137609-125.21891l-42.454928-269.864264c65.392336-10.492982 117.79687-60.024072 132.433218-123.954103l305.527508 51.341319c10.416234 51.733245 50.321082 92.796476 101.334943 105.145735l-4.377704 171.664731c-0.436952 17.243733 13.187347 31.579229 30.43108 32.017204 0.264013 0.010233 0.539282 0.010233 0.803295 0.010233 16.887622 0 30.775934-13.461593 31.213909-30.440289l4.408403-172.891675C914.723178 413.223323 959.855074 359.214245 959.855074 294.755164zM361.13499 808.039413c0 45.467541-36.993542 82.4662-82.4662 82.4662s-82.4662-36.998659-82.4662-82.4662c0-45.467541 36.993542-82.467223 82.4662-82.467223S361.13499 762.571872 361.13499 808.039413zM226.89666 334.021469c-55.107085 0-99.939153-44.832068-99.939153-99.94427s44.832068-99.94427 99.939153-99.94427c55.111179 0 99.94427 44.832068 99.94427 99.94427S282.007839 334.021469 226.89666 334.021469zM823.897589 368.254132c-40.527019 0-73.498968-32.971949-73.498968-73.498968s32.971949-73.493851 73.498968-73.493851 73.488735 32.967856 73.488735 73.493851S864.424608 368.254132 823.897589 368.254132z">
    </path>
    <path
        d="M417.518139 434.849876c-17.253966 0-31.233352 13.985526-31.233352 31.234375l0 30.470989c0 17.253966 13.980409 31.233352 31.233352 31.233352 17.253966 0 31.234375-13.980409 31.234375-31.233352l0-30.470989C448.752514 448.835402 434.772105 434.849876 417.518139 434.849876z">
    </path>
    <path
        d="M640.476093 434.849876c-17.253966 0-31.234375 13.985526-31.234375 31.234375l0 30.470989c0 17.253966 13.980409 31.233352 31.234375 31.233352 17.253966 0 31.233352-13.980409 31.233352-31.233352l0-30.470989C671.710468 448.835402 657.730059 434.849876 640.476093 434.849876z">
    </path>
    <path
        d="M528.675798 656.872528c43.953048 0 75.095325-30.308283 86.573751-48.223305 9.302877-14.518668 5.073552-33.846876-9.455349-43.149752-14.539134-9.282411-33.836643-5.083785-43.149752 9.455349-0.121773 0.193405-13.379729 19.449981-33.968649 19.449981-19.989263 0-32.423457-18.098193-33.277918-19.36914-9.181103-14.427594-28.285207-18.829857-42.834574-9.760295-14.650675 9.099239-19.155269 28.356838-10.044774 43.007513C453.732945 626.329908 484.499669 656.872528 528.675798 656.872528z">
    </path>
</svg>