<!DOCTYPE svg>
<svg viewBox="0 0 1024 1024" xmlns="http://www.w3.org/2000/svg">
	<path
		d="M320 416h96v192H192L176 288h672L832 608h-224v-192h96v64h-32v64h96v-192h-224v320h-64V352H256v192h96v-64h-32z"
		fill="#00fcff">
	</path>
	<path
		d="M320 16a16 16 0 0 1 16 16v112h352V32a16 16 0 0 1 16-16h224a16 16 0 0 1 16 16v112H992a16 16 0 0 1 16 16.832l-32 608a16 16 0 0 1-16 15.168h-80V992a16 16 0 0 1-16 16h-128a16 16 0 0 1-16-16v-208h-416V992a16 16 0 0 1-16 16H160a16 16 0 0 1-16-16v-208H64a16 16 0 0 1-16-15.168l-32-608A16 16 0 0 1 32 144h48V32A16 16 0 0 1 96 16h224z m-48 768h-96v192h96v-192z m576 0h-96v192h96v-192z m127.136-608H48.864l30.304 576h865.664l30.304-576z m-127.136 96a16 16 0 0 1 15.904 14.08l0.064 2.72-16 320a16 16 0 0 1-13.184 14.944L832 624h-224a16 16 0 0 1-15.744-13.12L592 608v-192a16 16 0 0 1 13.12-15.744L608 400h96a16 16 0 0 1 15.744 13.12l0.256 2.88v64a16 16 0 0 1-13.12 15.744L704 496h-16v32h64v-160h-192V672a16 16 0 0 1-13.12 15.744L544 688h-64a16 16 0 0 1-15.744-13.12L464 672v-304h-192v160h64v-32H320a16 16 0 0 1-15.744-13.12L304 480v-64a16 16 0 0 1 13.12-15.744L320 400h96a16 16 0 0 1 15.744 13.12l0.256 2.88v192a16 16 0 0 1-13.12 15.744L416 624H192a16 16 0 0 1-15.616-12.448l-0.352-2.752-16-320a16 16 0 0 1 13.28-16.576L176 272h672z m-16.832 32H192.832l14.4 288H400v-160h-64v32h16a16 16 0 0 1 15.744 13.12l0.256 2.88v64a16 16 0 0 1-13.12 15.744L352 560H256a16 16 0 0 1-15.744-13.12L240 544v-192a16 16 0 0 1 13.12-15.744L256 336h224a16 16 0 0 1 15.744 13.12l0.256 2.88v304h32V352a16 16 0 0 1 13.12-15.744L544 336h224a16 16 0 0 1 15.744 13.12l0.256 2.88v192a16 16 0 0 1-13.12 15.744L768 560h-96a16 16 0 0 1-15.744-13.12L656 544v-64a16 16 0 0 1 13.12-15.744L672 464h16v-32h-64v160h192.768l14.4-288z m16.832-160v-32h-64v32h64z m-608-32h-64v32h64v-32z m64-64h-192v96h32V96a16 16 0 0 1 16-16h96a16 16 0 0 1 16 16v48h32v-96z m608 0h-192v96h32V96a16 16 0 0 1 16-16h96a16 16 0 0 1 16 16v48h32v-96z"
		fill="##8992EB">
	</path>
</svg>